<svg xmlns="http://www.w3.org/2000/svg" viewBox="0 0 1200 1400"><defs><radialGradient id="b"><stop offset="0" stop-color="#123a12"/><stop offset="1" stop-color="#020402"/></radialGradient><style>.a{font:900 54px system-ui;fill:white}.s{font:800 18px system-ui;fill:#bdf7b7;letter-spacing:3px}.n{fill:#061006;stroke:#63ff5d;stroke-width:2}.c{fill:#160f02;stroke:#f7c948;stroke-width:3}.h{font:900 24px system-ui;fill:white}.t{font:700 14px system-ui;fill:#cde8c9}.l{stroke:#63ff5d;stroke-width:3;opacity:.45}</style></defs><rect width="1200" height="1400" fill="url(#b)"/><text x="600" y="80" text-anchor="middle" class="s">RICH BIZNESS UNIVERSE</text><text x="600" y="145" text-anchor="middle" class="a">STRUCTURE MAP</text><text x="600" y="190" text-anchor="middle" class="t">Portal home • profile wallet • avatar body • meta movement • hologram TV • live • games</text><line x1="600" y1="310" x2="600" y2="1010" class="l"/><line x1="210" y1="640" x2="990" y2="640" class="l"/><rect x="390" y="250" width="420" height="145" rx="34" class="c"/><text x="600" y="312" text-anchor="middle" class="h">PROFILE WALLET</text><text x="600" y="348" text-anchor="middle" class="t">profiles • user_levels • XP • rank • balance</text><rect x="390" y="560" width="420" height="160" rx="34" class="c"/><text x="600" y="626" text-anchor="middle" class="h">AVATAR BODY</text><text x="600" y="662" text-anchor="middle" class="t">meta_avatars • position • aura • free roam</text><rect x="390" y="895" width="420" height="160" rx="34" class="c"/><text x="600" y="958" text-anchor="middle" class="h">XP FLOWS INTO PROFILE</text><text x="600" y="994" text-anchor="middle" class="t">index/profile/avatar display only</text><rect x="70" y="430" width="260" height="130" rx="26" class="n"/><text x="200" y="486" text-anchor="middle" class="h">INDEX</text><text x="200" y="520" text-anchor="middle" class="t">main portal</text><rect x="870" y="430" width="260" height="130" rx="26" class="n"/><text x="1000" y="486" text-anchor="middle" class="h">AUTH</text><text x="1000" y="520" text-anchor="middle" class="t">tap-in identity</text><rect x="70" y="710" width="260" height="130" rx="26" class="n"/><text x="200" y="766" text-anchor="middle" class="h">WATCH TV</text><text x="200" y="800" text-anchor="middle" class="t">live_streams</text><rect x="870" y="710" width="260" height="130" rx="26" class="n"/><text x="1000" y="766" text-anchor="middle" class="h">LIVEKIT</text><text x="1000" y="800" text-anchor="middle" class="t">rooms + calls</text><rect x="70" y="1080" width="250" height="130" rx="26" class="n"/><text x="195" y="1136" text-anchor="middle" class="h">GAMES</text><text x="195" y="1170" text-anchor="middle" class="t">rooms • moves • scores</text><rect x="340" y="1080" width="250" height="130" rx="26" class="n"/><text x="465" y="1136" text-anchor="middle" class="h">LIVE</text><text x="465" y="1170" text-anchor="middle" class="t">streams • chat</text><rect x="610" y="1080" width="250" height="130" rx="26" class="n"/><text x="735" y="1136" text-anchor="middle" class="h">META</text><text x="735" y="1170" text-anchor="middle" class="t">worlds • portals</text><rect x="880" y="1080" width="250" height="130" rx="26" class="n"/><text x="1005" y="1136" text-anchor="middle" class="h">STORE</text><text x="1005" y="1170" text-anchor="middle" class="t">products • orders</text><text x="600" y="1310" text-anchor="middle" class="s">ACTION SYSTEMS EARN XP: music, live watch, games, uploads, store, sports, meta, messages</text></svg>