<svg xmlns="http://www.w3.org/2000/svg" viewBox="0 0 1200 675"><defs><linearGradient id="g" x2="1" y2="1"><stop stop-color="#ffb300"/><stop offset=".5" stop-color="#ff3d00"/><stop offset="1" stop-color="#31ff63"/></linearGradient><radialGradient id="r"><stop stop-color="#31ff63" stop-opacity=".5"/><stop offset="1" stop-color="#020402" stop-opacity="0"/></radialGradient><filter id="b"><feGaussianBlur stdDeviation="24"/></filter></defs><rect width="1200" height="675" fill="#050201"/><circle cx="260" cy="360" r="300" fill="#ff3d00" opacity=".2" filter="url(#b)"/><circle cx="930" cy="230" r="260" fill="#31ff63" opacity=".16" filter="url(#b)"/><circle cx="600" cy="338" r="300" fill="url(#r)" opacity=".28"/><g fill="none" stroke="#31ff63" opacity=".22"><circle cx="600" cy="338" r="250"/><circle cx="600" cy="338" r="190"/><circle cx="600" cy="338" r="130"/></g><path d="M640 470c-80-95-22-145 20-198 2 50 40 62 56 101 18-22 28-52 24-91 92 82 111 190 20 244-70 42-166 8-120-56z" fill="url(#g)"/><path d="M80 560C240 420 380 420 520 540s300 74 600-160" fill="none" stroke="url(#g)" stroke-width="6" opacity=".5"/><g fill="#f7c948"><circle cx="500" cy="245" r="9"/><circle cx="860" cy="180" r="7"/><circle cx="930" cy="420" r="10"/></g></svg>