<svg xmlns="http://www.w3.org/2000/svg" viewBox="0 0 1200 675"><defs><linearGradient id="g" x2="1" y2="1"><stop stop-color="#f7c948"/><stop offset="1" stop-color="#31ff63"/></linearGradient></defs><rect width="1200" height="675" fill="#020402"/><g opacity=".2" stroke="#31ff63"><path d="M120 520L420 260l180 170 210-250 270 340" fill="none" stroke-width="8"/><path d="M110 540h980"/><path d="M200 500v-90M320 500V330M440 500V375M560 500V275M680 500V350M800 500V215M920 500V295" stroke-width="28"/></g><rect x="455" y="195" width="310" height="230" rx="28" fill="url(#g)"/><rect x="510" y="145" width="200" height="90" rx="30" fill="none" stroke="#f7c948" stroke-width="22"/><path d="M455 300h310" stroke="#020402" stroke-width="28"/><circle cx="610" cy="300" r="22" fill="#020402"/><text x="70" y="100" fill="#31ff63" font-family="Arial" font-size="24" font-weight="700" letter-spacing="8">RICH BIZNESS LLC • CREATOR EMPIRE</text><text x="70" y="585" fill="#fff" font-family="Arial" font-size="68" font-weight="900">BEHIND THE BIZNESS</text><text x="74" y="628" fill="#f7c948" font-family="Arial" font-size="22" letter-spacing="5">BUILD • PUBLISH • EARN • CONTROL</text></svg>