<svg xmlns="http://www.w3.org/2000/svg" viewBox="0 0 1200 675"><defs><linearGradient id="g" x2="1" y2="1"><stop stop-color="#31ff63"/><stop offset=".5" stop-color="#f7c948"/><stop offset="1" stop-color="#ff4d1f"/></linearGradient><radialGradient id="r"><stop stop-color="#31ff63" stop-opacity=".8"/><stop offset="1" stop-color="#020402"/></radialGradient><filter id="b"><feGaussianBlur stdDeviation="34"/></filter></defs><rect width="1200" height="675" fill="#010201"/><circle cx="590" cy="335" r="330" fill="url(#r)" opacity=".48"/><g opacity=".3" fill="none" stroke="url(#g)"><circle cx="600" cy="338" r="260" stroke-width="4"/><circle cx="600" cy="338" r="205" stroke-width="2"/><circle cx="600" cy="338" r="145" stroke-width="6"/></g><path d="M520 450c70-40 35-95 91-137-10 68 96 87 31 178 74-30 79-112 45-177 118 79 98 260-87 274-169-14-205-171-80-278-11 67 55 76 0 140z" fill="url(#g)"/><circle cx="180" cy="170" r="120" fill="#f7c948" opacity=".15" filter="url(#b)"/><circle cx="1030" cy="500" r="150" fill="#31ff63" opacity=".18" filter="url(#b)"/><text x="70" y="100" fill="#31ff63" font-family="Arial" font-size="24" font-weight="700" letter-spacing="8">RICH BIZNESS LLC • BIZNESS PARTY</text><text x="70" y="585" fill="#fff" font-family="Arial" font-size="72" font-weight="900">WE LIT🔥</text><text x="74" y="628" fill="#f7c948" font-family="Arial" font-size="22" letter-spacing="5">TURN UP • EVENTS • CELEBRATIONS</text></svg>