<svg xmlns="http://www.w3.org/2000/svg" viewBox="0 0 1200 675"><defs><linearGradient id="g"><stop stop-color="#31ff63"/><stop offset="1" stop-color="#f7c948"/></linearGradient></defs><rect width="1200" height="675" fill="#020402"/><g opacity=".2" stroke="#31ff63" fill="none"><path d="M0 540h1200M0 470h1200M0 400h1200M0 330h1200"/><path d="M150 675L600 180 1050 675M300 675L600 180 900 675M450 675L600 180 750 675"/></g><path d="M410 275h380c65 0 105 49 92 112l-32 151c-12 56-86 69-116 21l-58-91H524l-58 91c-30 48-104 35-116-21l-32-151c-13-63 27-112 92-112z" fill="url(#g)"/><circle cx="460" cy="370" r="34" fill="#020402"/><rect x="428" y="362" width="64" height="16" rx="8" fill="#31ff63"/><rect x="452" y="338" width="16" height="64" rx="8" fill="#31ff63"/><circle cx="740" cy="350" r="18" fill="#020402"/><circle cx="785" cy="395" r="18" fill="#020402"/><text x="70" y="100" fill="#f7c948" font-family="Arial" font-size="24" font-weight="700" letter-spacing="8">RICH BIZNESS LLC • SQUAD ROOM</text><text x="70" y="585" fill="#fff" font-family="Arial" font-size="70" font-weight="900">GAME TIME</text><text x="74" y="628" fill="#31ff63" font-family="Arial" font-size="22" letter-spacing="5">GAMEPLAY • TOURNAMENTS • CHALLENGES</text></svg>