<svg xmlns="http://www.w3.org/2000/svg" viewBox="0 0 1200 675"><defs><linearGradient id="g" x2="1" y2="1"><stop stop-color="#f7c948"/><stop offset="1" stop-color="#31ff63"/></linearGradient><filter id="b"><feGaussianBlur stdDeviation="30"/></filter></defs><rect width="1200" height="675" fill="#020402"/><circle cx="600" cy="330" r="270" fill="#31ff63" opacity=".13" filter="url(#b)"/><g fill="none" stroke="url(#g)" opacity=".72"><path d="M120 360h35l20-100 34 210 38-150 25 70 38-180 35 290 42-200 30 120 45-220 40 260 35-150 38 90 40-250 35 330 42-210 35 130 38-180 40 250 34-100h55" stroke-width="9"/></g><path d="M680 190v210c0 70-110 91-143 35-31-53 50-111 105-73V225z" fill="url(#g)"/><text x="70" y="100" fill="#31ff63" font-family="Arial" font-size="24" font-weight="700" letter-spacing="8">RICH BIZNESS LLC • IN THE LAB</text><text x="70" y="585" fill="#fff" font-family="Arial" font-size="70" font-weight="900">MUSIC DROP</text><text x="74" y="628" fill="#f7c948" font-family="Arial" font-size="22" letter-spacing="5">STUDIO • PERFORMANCE • LISTENING PARTY</text></svg>