<svg xmlns="http://www.w3.org/2000/svg" viewBox="0 0 1200 675"><defs><linearGradient id="g" x2="1" y2="1"><stop stop-color="#31ff63"/><stop offset="1" stop-color="#f7c948"/></linearGradient></defs><rect width="1200" height="675" fill="#020402"/><path d="M0 560L240 360l170 90 220-270 190 150 180-90 200 320z" fill="#0a160c"/><path d="M0 560L240 360l170 90 220-270 190 150 180-90 200 320" fill="none" stroke="#31ff63" stroke-width="5" opacity=".45"/><path d="M610 145c-102 0-185 83-185 185 0 139 185 290 185 290s185-151 185-290c0-102-83-185-185-185z" fill="url(#g)"/><circle cx="610" cy="330" r="72" fill="#020402"/><text x="70" y="100" fill="#f7c948" font-family="Arial" font-size="24" font-weight="700" letter-spacing="8">RICH BIZNESS LLC • IRL LIVE</text><text x="70" y="585" fill="#fff" font-family="Arial" font-size="70" font-weight="900">ON THE GO</text><text x="74" y="628" fill="#31ff63" font-family="Arial" font-size="22" letter-spacing="5">STREETS • RIDES • EVENTS • REAL WORLD</text></svg>