<svg xmlns="http://www.w3.org/2000/svg" viewBox="0 0 1200 1600"><defs><radialGradient id="g1"><stop stop-color="#31ff63" stop-opacity=".78"/><stop offset=".45" stop-color="#0a3514" stop-opacity=".46"/><stop offset="1" stop-color="#010201"/></radialGradient><linearGradient id="g2" x2="1" y2="1"><stop stop-color="#31ff63"/><stop offset=".48" stop-color="#f7c948"/><stop offset="1" stop-color="#ff492f"/></linearGradient><filter id="blur"><feGaussianBlur stdDeviation="34"/></filter><pattern id="grid" width="80" height="80" patternUnits="userSpaceOnUse"><path d="M80 0H0V80" fill="none" stroke="#31ff63" stroke-opacity=".08"/></pattern></defs><rect width="1200" height="1600" fill="#010201"/><rect width="1200" height="1600" fill="url(#grid)"/><ellipse cx="600" cy="730" rx="520" ry="690" fill="url(#g1)"/><circle cx="600" cy="610" r="355" fill="none" stroke="#31ff63" stroke-opacity=".34" stroke-width="3"/><circle cx="600" cy="610" r="285" fill="none" stroke="#f7c948" stroke-opacity=".28" stroke-width="2"/><circle cx="600" cy="610" r="220" fill="none" stroke="#31ff63" stroke-opacity=".26" stroke-width="7"/><path d="M360 850c40-250 160-410 240-410s200 160 240 410c-85 92-165 132-240 132s-155-40-240-132z" fill="#071108" stroke="url(#g2)" stroke-width="8"/><circle cx="600" cy="590" r="105" fill="url(#g2)"/><path d="M430 965h340l105 330H325z" fill="#061008" stroke="#31ff63" stroke-opacity=".42" stroke-width="6"/><path d="M450 1100h300M410 1195h380" stroke="#f7c948" stroke-opacity=".42" stroke-width="5"/><circle cx="185" cy="285" r="110" fill="#31ff63" opacity=".18" filter="url(#blur)"/><circle cx="1010" cy="390" r="145" fill="#f7c948" opacity=".15" filter="url(#blur)"/><circle cx="180" cy="1260" r="150" fill="#31ff63" opacity=".13" filter="url(#blur)"/><text x="70" y="105" fill="#f7c948" font-family="Arial" font-size="25" font-weight="700" letter-spacing="9">RICH BIZNESS LLC • GLOBAL LIVE</text><text x="70" y="1405" fill="#fff" font-family="Arial" font-size="100" font-weight="900">WE LIVE</text><text x="74" y="1472" fill="#31ff63" font-family="Arial" font-size="30" font-weight="700" letter-spacing="7">CAMERA • MIC • CO-HOST • CHAT • REPLAY</text><text x="74" y="1532" fill="#a7b6aa" font-family="Arial" font-size="24" letter-spacing="5">PICK YOUR LANE • GET RIGHT • LIGHT THIS SHYT UP</text></svg>